<svg width="560" height="560" viewBox="0 0 560 560" fill="none" xmlns="http://www.w3.org/2000/svg">
<path d="M280 560C434.64 560 560 434.64 560 280C560 125.36 434.64 0 280 0C125.36 0 0 125.36 0 280C0 434.64 125.36 560 280 560Z" fill="#74D269"/>
<path d="M436.852 253.96H437.202L437.5 340.865L241.902 455L189.543 425.565V425.6L189.21 425.39L140 393.837V165.97L193.778 134.243L193.883 134.295L241.36 105L436.485 219.852L436.852 253.96ZM379.54 308.42L338.608 284.988L201.985 365.383L242.095 389.235L379.54 308.42ZM329.385 279.72L245.105 231.455L244.737 330.872L329.385 279.72ZM245.14 220.815L380.625 300.107V252.77L245.315 173.757L245.14 220.815ZM189.35 412.475L189.875 364.997L189.56 365.19V197.68L148.487 173.18V388.08L189.35 412.475ZM196.63 359.958L237.668 335.142V173.18L196.63 197.698V359.958ZM247.047 395.5L246.225 445.13L428.855 337.75L429.38 288.4L247.047 395.5ZM383.425 245.28L425.933 221.025L242.97 114.188L200.865 138.547L383.425 245.28Z" fill="white"/>
</svg>
