<svg width="45" height="47" viewBox="0 0 45 47" fill="none" xmlns="http://www.w3.org/2000/svg">
<path d="M22.5 1.375V0.375V1.375ZM7.75 15.1417H6.75H7.75ZM43.1843 35.5515L43.7782 36.3561L43.1843 35.5515ZM40.87 29.6129L41.7233 29.0914L40.87 29.6129ZM43.6789 34.6696L42.6827 34.5825L43.6789 34.6696ZM4.12999 29.6128L3.27672 29.0914L4.12999 29.6128ZM1.32108 34.6696L0.32488 34.7567L1.32108 34.6696ZM1.81565 35.5515L1.22182 36.3561L1.81565 35.5515ZM15.125 38.25L14.125 38.2484V38.25H15.125ZM38.25 15.1417C38.25 11.2022 36.5726 7.43923 33.6121 4.67611L32.2475 6.13822C34.8193 8.5386 36.25 11.7789 36.25 15.1417H38.25ZM33.6121 4.67611C30.654 1.91517 26.6558 0.375 22.5 0.375V2.375C26.1681 2.375 29.6733 3.73566 32.2475 6.13822L33.6121 4.67611ZM22.5 0.375C18.3442 0.375 14.346 1.91517 11.3879 4.67611L12.7525 6.13822C15.3267 3.73566 18.8319 2.375 22.5 2.375V0.375ZM11.3879 4.67611C8.42737 7.43923 6.75 11.2022 6.75 15.1417H8.75C8.75 11.7789 10.1807 8.5386 12.7525 6.13822L11.3879 4.67611ZM6.75 15.1417C6.75 21.5682 5.13491 26.0509 3.27672 29.0914L4.98326 30.1343C7.04045 26.7682 8.75 21.9224 8.75 15.1417H6.75ZM41.7233 29.0914C39.8651 26.0509 38.25 21.5682 38.25 15.1417H36.25C36.25 21.9224 37.9595 26.7682 40.0167 30.1343L41.7233 29.0914ZM38.2185 36.7917C39.7563 36.7917 40.9392 36.7918 41.7763 36.761C42.1935 36.7456 42.555 36.7216 42.846 36.6805C42.9918 36.6599 43.1413 36.6322 43.2822 36.5914C43.4114 36.554 43.6003 36.4873 43.7782 36.3561L42.5905 34.7469C42.687 34.6757 42.7564 34.6615 42.7266 34.6701C42.7086 34.6753 42.6597 34.687 42.5663 34.7002C42.3791 34.7266 42.0995 34.7477 41.7026 34.7623C40.9116 34.7915 39.7742 34.7917 38.2185 34.7917V36.7917ZM40.0167 30.1343C40.9688 31.6922 41.6696 32.839 42.1294 33.6478C42.3602 34.0538 42.5165 34.3506 42.6107 34.5585C42.658 34.6629 42.6802 34.7243 42.6887 34.7527C42.7032 34.8005 42.6704 34.723 42.6827 34.5825L44.6751 34.7567C44.6962 34.5155 44.6416 34.3013 44.6035 34.1751C44.5596 34.0294 44.4986 33.8793 44.4324 33.733C44.2995 33.4398 44.1069 33.0794 43.868 32.6593C43.3886 31.8161 42.6673 30.636 41.7233 29.0914L40.0167 30.1343ZM43.7782 36.3561C43.9914 36.1987 44.2464 35.9886 44.4261 35.6683C44.6058 35.3479 44.652 35.0208 44.6751 34.7567L42.6827 34.5825C42.6748 34.6726 42.6672 34.7136 42.6634 34.7295C42.6611 34.7393 42.6648 34.7201 42.6817 34.69C42.6986 34.6599 42.7131 34.6466 42.7059 34.6537C42.6943 34.6652 42.6633 34.6932 42.5905 34.7469L43.7782 36.3561ZM3.27672 29.0914C2.33272 30.636 1.61137 31.8161 1.13196 32.6593C0.893144 33.0794 0.700483 33.4398 0.567624 33.733C0.501355 33.8793 0.440434 34.0294 0.396489 34.1751C0.358426 34.3013 0.303782 34.5155 0.32488 34.7567L2.31727 34.5825C2.32956 34.723 2.29684 34.8005 2.31128 34.7527C2.31984 34.7243 2.34202 34.6629 2.3893 34.5585C2.48354 34.3506 2.6398 34.0538 2.8706 33.6478C3.33043 32.839 4.03116 31.6922 4.98326 30.1343L3.27672 29.0914ZM6.78154 34.7917C5.22576 34.7917 4.08839 34.7915 3.29738 34.7623C2.90045 34.7477 2.62092 34.7266 2.43369 34.7002C2.34034 34.687 2.29142 34.6753 2.2734 34.6701C2.24363 34.6615 2.31297 34.6757 2.40948 34.7469L1.22182 36.3561C1.39969 36.4873 1.58856 36.554 1.71776 36.5914C1.85871 36.6322 2.00819 36.6599 2.15396 36.6805C2.44496 36.7216 2.80651 36.7456 3.22367 36.761C4.06083 36.7918 5.24369 36.7917 6.78154 36.7917V34.7917ZM0.32488 34.7567C0.347973 35.0208 0.394223 35.3479 0.573893 35.6683C0.753563 35.9886 1.00856 36.1987 1.22182 36.3561L2.40948 34.7469C2.33673 34.6932 2.30573 34.6652 2.29411 34.6537C2.28695 34.6466 2.30142 34.6599 2.3183 34.69C2.33518 34.7201 2.33894 34.7393 2.33661 34.7295C2.33283 34.7136 2.32515 34.6726 2.31727 34.5825L0.32488 34.7567ZM28.875 38.25C28.875 41.7708 26.0208 44.625 22.5 44.625V46.625C27.1254 46.625 30.875 42.8754 30.875 38.25H28.875ZM22.5 44.625C18.9792 44.625 16.125 41.7708 16.125 38.25H14.125C14.125 42.8754 17.8746 46.625 22.5 46.625V44.625ZM6.78154 36.7917H15.129V34.7917H6.78154V36.7917ZM16.125 38.2516L16.129 35.7933L14.1291 35.79L14.125 38.2484L16.125 38.2516ZM15.129 36.7917H29.875V34.7917H15.129V36.7917ZM29.875 36.7917H38.2185V34.7917H29.875V36.7917ZM30.875 38.25V35.7917H28.875V38.25H30.875Z" fill="#74D269"/>
</svg>
