<svg width="41" height="47" viewBox="0 0 41 47" fill="none" xmlns="http://www.w3.org/2000/svg">
<path d="M38.3277 46.5278C37.9701 46.5278 37.617 46.4139 37.3209 46.1998L20.3333 33.8361L3.3456 46.2044C2.82627 46.5779 2.13838 46.6372 1.56438 46.3411C0.994938 46.0518 0.630493 45.4641 0.630493 44.8218L0.630493 5.75562C0.630493 2.93117 2.93105 0.630615 5.75549 0.630615L34.9065 0.630615C37.7309 0.630615 40.0315 2.93117 40.0315 5.75562V44.8195C40.0315 45.4618 39.6716 46.0495 39.0976 46.3411C38.8562 46.4663 38.5897 46.5278 38.3232 46.5278H38.3277ZM20.3333 30.0139C20.6863 30.0139 21.0394 30.1233 21.3355 30.3419L36.6194 41.4643V5.75562C36.6194 4.81717 35.8518 4.04728 34.911 4.04728H5.75549C4.81477 4.04728 4.04716 4.81717 4.04716 5.75562V41.4643L19.3311 30.3419C19.6272 30.1233 19.9802 30.0139 20.3333 30.0139Z" fill="black"/>
</svg>
